<?xml version="1.0" standalone="no"?>
<!DOCTYPE svg PUBLIC "-//W3C//DTD SVG 20010904//EN"
 "http://www.w3.org/TR/2001/REC-SVG-20010904/DTD/svg10.dtd">
<svg version="1.0" xmlns="http://www.w3.org/2000/svg"
 width="1024.000000pt" height="1024.000000pt" viewBox="0 0 1024.000000 1024.000000"
 preserveAspectRatio="xMidYMid meet">
<metadata>
Created by potrace 1.16, written by Peter Selinger 2001-2019
</metadata>
<g transform="translate(0.000000,1024.000000) scale(0.100000,-0.100000)"
fill="#000000" stroke="none">
<path d="M4347 7614 c-1 -1 -15 -5 -32 -7 -62 -12 -78 -17 -95 -32 -9 -8 -22
-15 -29 -15 -7 0 -10 -4 -7 -9 3 -5 -3 -11 -13 -14 -26 -6 -71 -80 -71 -115 0
-132 390 -597 753 -897 318 -263 733 -518 1112 -682 138 -60 311 -116 252 -82
-9 6 -15 14 -12 20 4 5 2 9 -2 9 -5 0 -9 18 -9 41 -1 22 -7 46 -13 52 -6 6
-11 19 -11 29 0 9 -12 39 -27 65 -15 26 -36 65 -47 86 -11 20 -23 37 -28 37
-4 0 -8 9 -8 19 0 10 -6 21 -14 24 -8 3 -17 19 -21 35 -3 17 -12 33 -19 35 -8
3 -17 18 -21 34 -3 15 -13 35 -21 43 -29 31 -84 105 -84 115 0 6 -9 16 -20 23
-11 7 -20 19 -20 27 0 8 -18 32 -40 52 -22 21 -40 41 -40 46 0 4 -8 15 -17 25
-10 10 -27 31 -38 46 -28 40 -65 85 -97 119 -16 16 -28 33 -28 38 0 5 -6 9
-13 9 -7 0 -24 18 -37 39 -14 21 -28 37 -32 34 -5 -2 -8 1 -8 7 0 6 -5 8 -10
5 -6 -4 -9 -3 -8 2 2 5 -4 16 -12 26 -28 33 -132 136 -141 139 -10 4 -141 120
-191 171 -20 20 -40 37 -44 37 -9 0 -54 53 -54 63 0 4 -7 7 -17 7 -9 0 -14 3
-11 6 7 7 -35 50 -65 65 -12 7 -29 18 -37 25 -33 30 -76 60 -102 72 -16 6 -28
16 -28 21 0 5 -11 12 -25 15 -14 4 -25 11 -25 16 0 6 -5 10 -11 10 -5 0 -7 -6
-4 -12 4 -7 -3 -3 -14 10 -11 13 -30 24 -43 26 -30 3 -61 17 -70 30 -5 7 -8 7
-8 -2 0 -10 -5 -10 -20 -2 -17 9 -195 22 -203 14z"/>
<path d="M3136 7028 c5 -8 2 -9 -9 -5 -11 4 -26 -6 -46 -32 -24 -31 -31 -51
-37 -107 -4 -38 -6 -73 -6 -79 0 -22 14 -90 23 -112 5 -13 5 -22 0 -19 -4 3
-6 -6 -3 -19 2 -14 8 -23 12 -20 4 3 10 -2 14 -10 3 -9 0 -15 -9 -15 -8 0 -15
-4 -15 -10 0 -5 -4 -10 -10 -10 -5 0 -10 7 -10 15 0 8 -7 15 -15 15 -8 0 -15
7 -15 15 0 8 -9 15 -20 15 -12 0 -20 7 -21 18 0 12 -2 13 -6 3 -4 -11 -7 -11
-14 0 -4 7 -11 10 -15 7 -7 -8 40 -94 121 -218 30 -47 63 -101 73 -120 10 -19
26 -48 37 -65 l18 -30 -27 28 c-19 19 -34 26 -52 23 -13 -3 -24 0 -24 5 0 5
-9 9 -21 9 -11 0 -28 4 -37 9 -9 5 -33 11 -52 15 -58 9 -164 37 -175 46 -5 4
-73 7 -150 6 -128 -2 -145 -4 -203 -29 -100 -44 -162 -117 -180 -212 -9 -52
-4 -230 8 -276 19 -69 21 -79 25 -154 3 -44 1 -71 -6 -76 -7 -4 -11 -20 -11
-35 0 -16 -4 -34 -9 -40 -8 -10 -7 -59 3 -201 2 -17 6 -29 10 -27 14 9 14 -32
-1 -49 -13 -16 -13 -17 1 -12 20 8 32 -24 29 -73 -1 -20 2 -31 8 -28 5 4 12 2
15 -3 4 -5 -1 -11 -11 -13 -14 -3 -13 -7 9 -30 14 -15 27 -25 30 -23 2 3 5 -1
5 -9 0 -8 -5 -14 -10 -13 -5 1 -12 -4 -14 -11 -3 -7 -1 -12 4 -11 20 3 27 -2
13 -11 -12 -7 -12 -12 -2 -22 10 -10 15 -10 22 2 8 12 10 10 10 -8 0 -13 -4
-20 -10 -17 -5 3 -10 1 -10 -6 0 -7 -3 -9 -7 -5 -4 3 -13 -4 -19 -16 l-13 -23
-9 25 c-5 14 -12 24 -16 23 -20 -8 -48 0 -63 17 -10 11 -23 20 -29 20 -6 0
-17 6 -24 14 -6 8 -17 13 -24 10 -7 -3 -19 2 -26 11 -7 8 -20 15 -29 15 -9 0
-21 4 -27 10 -5 5 -19 11 -30 13 -12 1 -33 10 -47 20 -15 9 -31 17 -37 17 -6
0 -9 4 -6 8 2 4 -5 9 -17 9 -12 1 -28 11 -37 22 -8 10 -31 26 -50 35 -46 20
-73 38 -83 54 -5 7 -12 10 -18 7 -5 -4 -9 -2 -9 4 0 6 -7 8 -15 5 -8 -4 -15
-1 -15 5 0 6 -6 11 -14 11 -8 0 -17 7 -20 16 -3 8 -10 13 -15 10 -4 -3 -18 2
-29 12 -11 9 -30 24 -43 32 -12 8 -36 29 -53 45 -48 48 -71 56 -113 42 -30
-10 -37 -18 -40 -42 -2 -16 -6 -37 -10 -45 -3 -8 -5 -21 -4 -29 1 -7 -2 -10
-8 -6 -6 3 -11 1 -11 -4 0 -6 5 -11 10 -11 6 0 10 -5 10 -11 0 -5 -4 -8 -9 -4
-6 3 -7 -16 -4 -47 3 -29 6 -61 6 -70 1 -10 5 -18 10 -18 4 0 5 -4 2 -10 -3
-5 3 -44 14 -87 11 -43 25 -104 32 -135 7 -32 16 -58 21 -58 4 0 7 -3 7 -7 -4
-25 2 -85 8 -80 9 10 75 -123 69 -139 -3 -8 -1 -14 4 -14 6 0 10 -9 10 -21 0
-11 4 -18 9 -15 5 4 7 -3 4 -14 -3 -12 0 -20 7 -20 8 0 11 -9 8 -25 -3 -14 -1
-25 4 -25 5 0 7 -4 4 -8 -6 -10 130 -193 235 -317 91 -109 347 -358 499 -486
226 -191 609 -467 630 -454 6 3 10 0 10 -7 1 -19 190 -138 190 -119 0 6 4 11
9 11 5 0 8 -8 7 -17 -1 -12 5 -17 17 -15 9 2 17 -2 17 -8 0 -5 9 -10 20 -10
11 0 20 -7 20 -15 0 -13 12 -19 25 -12 2 1 10 -7 18 -17 8 -10 19 -16 24 -13
6 4 13 0 17 -8 6 -18 156 -93 174 -87 6 2 15 -4 18 -13 8 -20 61 -48 76 -39 7
4 8 3 4 -4 -4 -7 4 -14 21 -18 15 -4 34 -12 42 -18 11 -8 13 -8 7 2 -4 6 -2
12 3 12 6 0 11 -6 11 -14 0 -12 67 -38 125 -49 11 -2 19 -8 18 -14 -1 -6 5 -9
15 -6 9 2 28 -1 42 -6 23 -10 21 -11 -10 -6 -29 5 -32 4 -17 -6 11 -6 24 -12
30 -13 7 -1 29 -10 51 -19 21 -9 42 -14 47 -11 13 8 50 -6 44 -16 -3 -4 5 -6
17 -3 19 4 20 3 8 -7 -12 -9 -8 -10 20 -5 23 4 30 3 22 -3 -11 -7 -6 -12 19
-21 40 -14 42 -14 33 1 -4 7 -3 8 4 4 7 -4 20 -9 29 -11 76 -18 163 -45 190
-58 18 -10 40 -17 50 -17 15 0 16 -2 3 -10 -11 -7 -5 -8 19 -3 22 4 32 3 28
-4 -4 -6 23 -13 71 -17 42 -3 109 -15 147 -26 82 -23 184 -38 310 -45 50 -3
128 -8 175 -11 47 -3 117 -5 155 -4 39 2 117 4 175 5 119 3 200 13 200 26 0 5
10 9 23 9 33 -1 61 5 77 15 19 12 36 15 78 16 17 1 35 7 40 13 4 7 28 21 54
31 26 10 45 21 43 26 -3 4 9 7 26 7 17 -1 34 3 37 8 7 10 24 15 57 19 11 1 28
5 37 9 9 4 22 5 28 1 5 -3 10 -2 10 3 0 5 26 15 58 22 31 7 61 17 66 22 6 4
22 8 37 8 15 0 29 4 31 9 2 5 32 12 66 15 35 3 68 9 74 12 6 4 32 6 59 5 33 0
49 3 49 12 0 7 16 17 35 23 35 11 50 2 19 -10 -9 -4 -14 -9 -11 -12 7 -7 47
14 46 24 -3 18 2 32 12 32 5 0 7 -4 4 -10 -3 -6 -1 -10 4 -10 6 0 11 6 11 13
0 13 57 62 74 62 6 1 10 7 8 14 -1 7 1 10 6 7 12 -7 54 23 47 35 -4 5 0 9 8 9
8 0 20 7 27 15 7 9 19 14 26 11 17 -7 36 18 28 38 -6 14 5 21 28 17 4 0 5 5 2
13 -3 7 3 19 12 27 16 12 17 12 11 -4 -4 -11 -3 -16 4 -12 6 4 8 12 6 19 -6
16 10 56 23 56 6 0 8 -6 5 -12 -4 -7 6 1 22 19 36 40 96 140 96 159 0 8 4 14
8 14 5 0 6 6 3 14 -8 21 67 166 86 167 10 0 11 2 3 6 -7 2 -13 12 -13 20 0 10
6 13 16 9 14 -5 15 -4 4 9 -10 12 -10 19 -2 27 7 7 12 21 12 33 0 25 49 146
51 125 1 -19 29 80 28 100 -1 8 -5 4 -9 -10 l-8 -25 -1 25 c0 14 4 55 9 91 16
112 20 198 10 204 -6 3 -10 26 -10 50 0 24 -5 47 -10 50 -6 4 -8 11 -5 16 12
18 -43 26 -162 23 -66 -2 -142 -4 -168 -4 -37 0 -46 -3 -41 -15 3 -8 -1 -18
-7 -22 -7 -5 -28 -29 -46 -55 -19 -26 -40 -49 -47 -52 -8 -3 -14 -12 -14 -21
0 -8 -4 -15 -9 -15 -13 0 -111 -96 -111 -109 0 -6 -9 -11 -20 -11 -11 0 -20
-4 -20 -10 0 -5 -7 -10 -15 -10 -8 0 -15 -5 -15 -11 0 -30 -128 -121 -228
-163 -83 -35 -207 -76 -229 -76 -11 0 -23 -4 -29 -10 -5 -5 -32 -12 -59 -15
-28 -3 -77 -12 -110 -20 -67 -16 -182 -36 -235 -40 -19 -1 -35 -3 -35 -4 0
-11 -460 -15 -477 -5 -7 5 -22 9 -33 10 -11 1 -40 7 -65 13 -25 7 -61 14 -80
16 -94 11 -159 26 -166 36 -3 5 -17 9 -31 9 -37 0 -116 26 -176 57 -15 8 -31
12 -36 8 -5 -3 -12 -1 -16 5 -3 5 -14 10 -24 10 -9 0 -53 17 -96 39 -44 21
-98 44 -120 51 -22 7 -58 24 -80 38 -22 14 -40 24 -40 23 0 -2 -11 2 -25 7
-14 6 -32 13 -40 16 -8 3 -37 20 -65 36 -27 16 -66 38 -85 47 -19 10 -37 21
-40 24 -7 8 -152 94 -159 94 -3 0 -22 12 -42 28 -20 15 -41 27 -46 27 -9 0
-125 88 -164 125 -9 8 -19 15 -23 15 -15 0 -76 53 -76 66 0 8 -3 13 -7 12 -14
-4 -53 13 -53 23 0 5 -4 9 -9 9 -13 0 -82 68 -79 77 2 5 -7 18 -19 31 -13 12
-23 17 -23 12 0 -15 -38 11 -44 30 -3 8 -13 26 -23 39 -14 19 -14 23 -3 19 8
-3 14 -10 13 -16 -1 -5 4 -16 12 -22 8 -7 15 -9 15 -6 0 4 13 -2 29 -13 15
-11 31 -18 35 -14 3 3 6 1 6 -5 0 -7 6 -11 13 -10 6 2 11 -2 10 -8 -1 -7 6
-10 17 -7 11 3 20 0 20 -6 0 -6 7 -11 15 -11 9 0 20 -12 25 -26 6 -14 14 -23
20 -19 5 3 32 -10 60 -30 36 -26 58 -34 73 -30 17 5 18 4 8 -4 -12 -8 -10 -12
12 -22 15 -7 27 -17 27 -22 0 -5 12 -7 26 -4 19 3 47 -8 106 -44 44 -27 81
-49 83 -49 2 0 28 -14 57 -32 29 -18 126 -69 215 -113 90 -45 160 -85 157 -88
-4 -3 2 -5 12 -5 11 1 71 -19 134 -44 109 -43 271 -97 407 -134 34 -9 60 -21
56 -27 -3 -5 3 -6 15 -3 12 4 50 0 84 -8 35 -8 99 -21 142 -27 50 -8 73 -15
61 -19 -35 -12 4 -22 98 -24 87 -3 90 -2 52 10 l-40 12 77 1 c42 1 84 4 94 8
11 4 15 2 12 -7 -3 -9 -18 -14 -41 -13 -20 0 -37 -3 -37 -7 0 -18 185 -31 240
-18 19 5 47 10 63 13 40 6 49 14 41 37 -4 14 -2 18 5 14 6 -4 11 -2 11 5 0 7
-8 9 -22 5 -13 -4 -74 -15 -135 -25 -110 -18 -113 -18 -113 1 0 28 -107 246
-195 398 -83 143 -263 417 -370 564 -36 49 -64 90 -62 92 2 2 77 -34 168 -79
279 -141 542 -247 821 -331 105 -31 139 -46 144 -60 4 -11 6 -77 6 -148 l0
-130 25 59 c33 80 49 133 48 166 -1 22 3 27 22 27 40 0 223 -43 223 -52 0 -5
-4 -7 -9 -3 -5 3 -12 1 -16 -5 -4 -6 -11 -8 -16 -5 -8 5 -14 -32 -10 -58 1 -4
-6 -10 -14 -13 -8 -3 -12 -10 -9 -15 3 -5 1 -9 -4 -9 -5 0 -8 -11 -7 -25 2
-14 -1 -25 -7 -25 -6 0 -7 -11 -4 -26 5 -19 4 -24 -5 -18 -9 5 -10 2 -6 -10 4
-9 3 -14 -2 -11 -5 3 -16 -3 -23 -14 -19 -26 -115 -101 -130 -101 -8 0 -29
-10 -48 -23 -19 -13 -55 -31 -80 -41 -126 -50 -159 -69 -165 -94 -3 -13 -4
-27 0 -30 3 -3 5 1 5 9 0 11 2 12 9 1 6 -11 17 -11 47 -3 21 6 48 10 59 11 46
0 97 13 102 26 3 8 13 14 23 14 10 0 20 7 24 15 3 8 12 15 20 15 8 0 23 11 34
25 11 14 23 25 27 25 4 0 25 19 46 41 22 23 42 39 46 36 3 -4 13 8 22 26 9 17
26 36 39 42 12 5 22 17 22 27 0 9 11 30 25 45 39 45 45 52 45 58 0 3 -5 3 -12
-1 -8 -5 -9 -2 -5 10 4 10 7 22 7 28 0 6 6 8 13 5 9 -3 12 4 11 22 -2 39 -3
43 -12 37 -4 -2 -14 -1 -22 5 -10 6 0 7 30 5 148 -15 379 -28 391 -23 8 3 -7
6 -34 6 -26 1 -73 8 -105 16 -31 8 -70 17 -85 20 -15 3 -25 10 -22 15 3 6 -3
10 -14 10 -11 0 -23 5 -27 11 -5 9 1 10 20 5 15 -4 32 -3 39 1 7 4 39 8 72 8
33 1 73 5 89 9 18 6 27 5 23 -1 -3 -5 5 -9 18 -9 13 0 21 4 18 9 -4 6 5 8 21
5 17 -3 29 0 34 9 7 11 14 12 36 3 15 -5 25 -6 21 -1 -3 6 6 6 24 1 25 -7 29
-6 23 8 -5 15 -3 15 10 4 10 -8 18 -9 22 -3 4 6 13 8 21 4 8 -3 15 0 15 6 0 6
5 11 11 11 5 0 7 -4 4 -10 -3 -5 0 -10 8 -10 8 0 17 6 20 14 3 8 21 14 44 15
21 1 56 3 78 6 22 3 90 7 150 9 61 3 142 12 180 21 102 23 242 42 338 47 26 1
47 6 47 10 0 5 8 4 18 -1 12 -6 29 -4 56 10 21 10 43 16 48 13 5 -3 18 4 28
16 12 14 26 20 35 16 9 -3 13 -2 10 4 -3 6 2 10 12 11 26 1 78 35 75 49 -1 6
2 9 8 5 5 -3 19 -1 30 5 16 9 18 8 14 -5 -4 -8 -2 -15 3 -15 20 0 253 209 253
227 0 3 -21 -13 -46 -37 -25 -23 -49 -39 -52 -35 -4 4 -2 10 5 12 31 11 66 52
60 72 -3 12 -1 21 4 21 5 0 9 -5 9 -11 0 -8 5 -8 15 1 8 7 13 16 10 20 -3 4 4
10 15 13 13 3 18 10 14 21 -3 9 -2 16 3 16 13 0 13 -32 -1 -49 -9 -12 -8 -12
9 -2 11 7 29 25 40 39 15 22 16 24 2 13 -10 -8 -21 -11 -24 -7 -4 4 -3 10 3
14 6 4 13 15 17 24 5 15 2 16 -31 4 -20 -7 -43 -11 -50 -9 -7 3 -19 0 -26 -6
-7 -6 -22 -8 -31 -4 -13 4 -16 3 -11 -5 4 -7 3 -12 -3 -12 -5 0 -12 6 -14 13
-4 9 -6 9 -6 -1 -1 -9 -11 -11 -37 -6 -21 4 -39 2 -43 -4 -3 -5 -24 -12 -46
-15 -22 -3 -51 -9 -65 -12 -14 -4 -38 -8 -55 -9 -41 -3 -76 -16 -70 -25 2 -5
-20 -9 -50 -10 -79 -3 -95 -5 -95 -11 0 -3 -39 -6 -87 -5 -49 1 -96 -3 -105
-7 -11 -5 -18 -5 -18 1 0 6 -13 4 -32 -3 -18 -8 -40 -12 -48 -10 -64 15 -70
16 -70 4 0 -9 -4 -9 -12 -2 -15 11 -136 10 -156 -2 -6 -4 -12 -3 -12 2 0 5
-35 8 -77 8 -100 0 -301 18 -333 30 -8 3 -37 8 -65 10 -66 6 -78 8 -92 17 -6
4 -24 9 -40 11 -56 8 -138 29 -150 38 -7 5 -17 7 -23 3 -5 -3 -10 -2 -10 3 0
5 -6 9 -12 10 -15 1 -53 8 -88 16 -14 3 -26 10 -28 16 -2 5 -10 10 -18 10 -8
0 -60 16 -116 35 -55 19 -105 32 -109 29 -5 -3 -9 -1 -9 3 0 10 -63 35 -97 39
-13 1 -35 11 -50 22 -16 11 -45 22 -66 26 -21 4 -35 10 -33 14 3 5 -4 8 -15 9
-10 1 -31 9 -46 17 -16 8 -40 20 -55 27 -16 6 -28 15 -28 20 0 5 -3 8 -7 7
-24 -8 -293 144 -293 164 0 5 -6 8 -12 6 -14 -3 -69 30 -80 48 -4 6 -26 19
-50 29 -24 11 -47 25 -51 32 -4 7 -12 13 -16 13 -5 0 -31 15 -59 33 -57 37
-111 67 -115 64 -2 -1 -11 5 -20 13 -30 27 -95 73 -107 75 -13 3 -70 41 -70
48 0 4 -6 7 -14 7 -8 0 -21 6 -28 13 -16 16 -107 77 -115 77 -3 0 -22 14 -43
30 -21 17 -45 30 -53 30 -8 0 -17 3 -19 8 -5 12 -91 78 -123 95 -16 8 -38 25
-48 36 -9 12 -43 38 -75 58 -31 20 -63 43 -70 50 -7 7 -33 25 -58 39 -24 14
-44 30 -44 35 0 5 -4 9 -9 9 -15 0 -135 81 -153 104 -10 11 -18 17 -18 12 0
-4 -17 6 -37 23 -59 49 -61 51 -73 51 -6 0 -23 14 -37 30 -13 17 -29 28 -33
25 -5 -3 -12 0 -17 8 -8 12 -48 40 -68 48 -10 4 -25 15 -78 61 -18 15 -38 28
-46 28 -7 0 -23 10 -35 23 -37 41 -112 96 -139 102 -15 4 -29 16 -33 27 -3 12
-11 17 -20 14 -9 -3 -12 -1 -9 4 3 6 -3 10 -13 10 -11 0 -22 7 -26 15 -3 8
-11 15 -19 15 -7 0 -26 13 -42 30 -16 16 -30 28 -33 25 -4 -4 -19 6 -56 41
-13 11 -28 18 -33 17 -6 -2 -13 6 -16 17 -4 17 -11 20 -26 15 -15 -5 -21 -2
-21 10 0 9 -5 13 -11 10 -6 -4 -17 1 -25 11 -9 11 -13 14 -10 7 4 -7 -1 -11
-14 -10 -11 1 -20 5 -20 9 0 4 -5 8 -11 8 -5 0 -7 -5 -3 -12z"/>
<path d="M4643 2458 c-12 -13 -39 -57 -60 -98 -35 -70 -38 -81 -38 -160 0
-106 27 -166 115 -258 61 -63 71 -82 46 -82 -21 0 -79 -32 -91 -50 -39 -62 16
-100 205 -141 92 -21 132 -23 330 -24 247 0 354 7 475 30 108 20 185 49 212
80 31 35 15 60 -61 94 l-59 27 61 67 c33 38 73 93 89 124 25 52 27 65 24 157
-4 138 -5 148 -17 170 -11 18 -18 18 -132 7 -284 -27 -580 -11 -897 49 -180
34 -178 34 -202 8z"/>
</g>
</svg>
